<svg width="32" height="33" viewBox="0 0 32 33" fill="none" xmlns="http://www.w3.org/2000/svg">
<path fill-rule="evenodd" clip-rule="evenodd" d="M21.3334 3.05969H28C28.7364 3.05969 29.3334 3.65665 29.3334 4.39303V11.0597C29.3334 11.7961 28.7364 12.393 28 12.393C27.2636 12.393 26.6667 11.7961 26.6667 11.0597V7.60636L19.6134 14.673C19.363 14.9254 19.0222 15.0674 18.6667 15.0674C18.3112 15.0674 17.9704 14.9254 17.72 14.673C17.4676 14.4227 17.3256 14.0819 17.3256 13.7264C17.3256 13.3708 17.4676 13.03 17.72 12.7797L24.7867 5.72636H21.3334C20.597 5.72636 20 5.12941 20 4.39303C20 3.65665 20.597 3.05969 21.3334 3.05969ZM14.6744 19.0597C14.6744 18.7042 14.5324 18.3634 14.28 18.113C14.0297 17.8606 13.6889 17.7186 13.3334 17.7186C12.9778 17.7186 12.637 17.8606 12.3867 18.113L5.33335 25.1797V21.7264C5.33335 20.99 4.7364 20.393 4.00002 20.393C3.26364 20.393 2.66669 20.99 2.66669 21.7264V28.393C2.66669 29.1294 3.26364 29.7264 4.00002 29.7264H10.6667C11.4031 29.7264 12 29.1294 12 28.393C12 27.6566 11.4031 27.0597 10.6667 27.0597H7.21335L14.28 20.0064C14.5324 19.756 14.6744 19.4152 14.6744 19.0597Z" fill="white"/>
</svg>
