<svg xmlns="http://www.w3.org/2000/svg" xmlns:xlink="http://www.w3.org/1999/xlink" version="1.1" id="Layer_1" x="0px" y="0px" viewBox="0 0 136 22" style="enable-background:new 0 0 136 22;" xml:space="preserve" preserveAspectRatio="xMidYMid meet">
<style type="text/css">
	.st0{fill:none;}
	.st1{fill:#FFFFFF;}
</style>
<rect class="st0" width="136" height="22"></rect>
<path class="st1" d="M0,7.7V4.4h11.1v3.3H7.4v9.9H3.6V7.7H0z"></path>
<path class="st1" d="M12.1,17.6V4.4h3.8v4.8h3.9V4.4h3.8v13.2h-3.8v-5.2h-3.9v5.2H12.1z"></path>
<path class="st1" d="M24.5,17.6V4.4h10v3.1h-6.3v1.8h5.2v2.9h-5.2v2.1h6.4v3.3H24.5z"></path>
<path class="st1" d="M48.3,17.5L48,16.1h0c-0.8,1.1-2,1.7-3.7,1.7c-1.8,0-3.2-0.6-4.2-1.8c-1.2-1.3-1.8-3-1.8-5.1  c0-2,0.6-3.6,1.7-4.9c1.2-1.3,2.7-1.9,4.6-1.9c1.7,0,3,0.4,4,1.3c1,0.8,1.6,2,1.9,3.5h-3.6c-0.1-0.4-0.4-0.8-0.7-1.1  c-0.4-0.3-0.9-0.5-1.4-0.4c-0.9,0-1.5,0.3-2,1C42.3,9,42.1,9.9,42.1,11c0,1.1,0.3,2,0.8,2.7c0.5,0.7,1.2,1,2.1,1  c1.2,0,2-0.5,2.3-1.6h-1.7v-2.7h5.3v7.2L48.3,17.5z"></path>
<path class="st1" d="M51.8,17.6V4.4h6.4c1.4,0,2.6,0.3,3.5,1C62.6,6,63,7,63,8.3c0,1.5-0.7,2.6-2.1,3.2v0.1c1,0.4,1.6,1.1,1.8,2.2  c0.1,0.5,0.2,1,0.2,1.6c0,0.6,0.1,1.1,0.1,1.5c0,0.4,0.1,0.6,0.3,0.6v0.2h-3.7c-0.1-0.1-0.2-0.3-0.2-0.6c0-0.3-0.1-0.7-0.1-1.2  c0-0.4-0.1-0.8-0.2-1.2c-0.1-0.5-0.3-0.9-0.6-1.2c-0.3-0.2-0.7-0.4-1.2-0.4h-1.7v4.6H51.8z M55.5,7.4v2.8h2c1.1,0,1.7-0.5,1.7-1.4  c0-0.2,0-0.4-0.1-0.6c-0.1-0.2-0.2-0.3-0.3-0.5c-0.3-0.3-0.7-0.4-1.2-0.4L55.5,7.4z"></path>
<path class="st1" d="M63.8,17.6l4.7-13.2h3.8l4.8,13.2h-4l-0.6-1.9h-4.3l-0.6,1.9H63.8z M69.8,10.4L69,13h2.7l-0.8-2.6l-0.5-1.7h0  C70.1,9.4,70,10,69.8,10.4L69.8,10.4z"></path>
<path class="st1" d="M77.7,17.6V4.4h5.9c1.9,0,3.4,0.6,4.5,1.8c1.2,1.2,1.7,2.8,1.7,4.9c0,2.1-0.6,3.7-1.7,4.8  c-1.1,1.1-2.7,1.7-4.7,1.7H77.7z M81.4,14.4h1.7c0.9,0,1.6-0.3,2.1-0.9c0.5-0.6,0.8-1.4,0.8-2.5c0-1.1-0.3-1.9-0.8-2.5  c-0.5-0.6-1.2-0.9-2.1-0.9h-1.7V14.4z"></path>
<path class="st1" d="M90.6,17.6V4.4h3.8v13.2H90.6z"></path>
<path class="st1" d="M95.4,17.6V4.4h16v3.1H99.1v1.8h11.2v2.9H99.1v2.1h12.2v3.3H95.4z"></path>
<path class="st1" d="M112.3,17.6V4.4h3.8l4.2,7.4h0V4.4h3.6v13.2h-3.9l-4.1-7.5h0v7.5H112.3z"></path>
<path class="st1" d="M124.9,7.7V4.4H136v3.3h-3.7v9.9h-3.8V7.7H124.9z"></path>
</svg>