<svg xmlns="http://www.w3.org/2000/svg" id="svg2759" version="1.0" style="box-shadow: none; border-radius: 0px; opacity: 1;" viewBox="-0.007568359375 -0.007568359375 499.7625732421875 91.63751220703125" preserveAspectRatio="xMidYMid meet" fill="#ffffff" fill-opacity="1">
 <defs id="f13ceaa7-48df-4fb3-8c1f-57f8b0e1df27">
  <clipPath id="2c2c951f-2ce0-4e24-9f48-515afc1b3716">
   <path id="7aac8d82-ddef-4936-83f3-afeac40598b8" d="m0 595.28h841.89v-595.28h-841.89v595.28z"></path>
  </clipPath>
 </defs>
 <g id="9645732c-5cc3-4c5b-b005-290e23f133ea" transform="translate(-127.26 -383.69)">
  <g id="f5bc2571-0beb-4877-91f5-08131de596ff" transform="matrix(1.25 0 0 -1.25 -154.36 849.47)">
   <g id="a067dcfa-e8e1-4eea-a02b-891a72f0e157" clip-path="url(#2c2c951f-2ce0-4e24-9f48-515afc1b3716)">
    <path id="20c58933-2862-4057-abfc-09ad2e4c88b0" d="m360.92 371.16h-21.48v-27.97h-22.36v27.97h-21.48v-70.37h21.48v27.68h22.36v-27.68h21.48v70.37zm74.72-56.23v56.23h-21.48v-70.37h38.84l3.23 14.14h-20.59zm-37.36 56.23h-21.48v-70.37h21.48v70.37zm87.08 0h-21.47v-70.37h21.47v70.37zm105.9-17.96c0 3.83 3.83 5.6 10 5.6 6.77 0 14.13-1.48 19.13-3.55l-1.76 15.32c-5.6 1.18-10.6 2.06-19.71 2.06-17.36 0-29.13-6.85-29.13-21.2 0-24.73 33.55-19.73 33.55-31.21 0-4.41-3.25-6.76-11.19-6.76-7.05 0-17.95 2.35-24.42 5.59l2.36-16.2c6.47-2.36 15.29-3.53 22.36-3.53 17.94 0 32.65 5.89 32.65 23.56 0 23.54-33.84 19.13-33.84 30.32m-60.59-35.63c19.99 0 32.65 10.31 32.65 28.27 0 19.72-13.53 26.79-35.6 26.79-8.53 0-18.83-0.59-26.18-1.47v-70.37h21.48v16.78h7.65zm11.47 27.97c0-9.12-4.41-15.31-15.6-15.31h-3.52v29.08c1.25 0.07 2.42 0.07 3.52 0.07 10.59 0 15.6-5 15.6-13.84m-287.72-27.97c20 0 32.65 10.31 32.65 28.27 0 19.72-13.53 26.79-35.59 26.79-8.54 0-18.83-0.59-26.19-1.47v-70.37h21.48v16.78h7.65zm11.48 27.97c0-9.12-4.42-15.31-15.6-15.31h-3.53v29.08c1.25 0.07 2.43 0.07 3.53 0.07 10.59 0 15.6-5 15.6-13.84" fill="" style="undefined" fill-opacity=""></path>
   </g>
  </g>
 </g>
</svg>