<svg xmlns="http://www.w3.org/2000/svg" viewBox="0 -0.04394567012786865 1271.7061767578125 358.9439392089844" fill="none" preserveAspectRatio="xMidYMid meet">
<g clip-path="url(#f9b3f28e-8af8-43c5-85d0-9075b5643d22)">
<path d="M233.3 318.6C230.6 318.8 227.9 318.9 225.2 318.9C222.1 318.9 219.1 318.6 216.1 318.6L225.1 297L233.3 318.6ZM243.2 343.1C244.8 343 247.2 342.6 249.7 342.6C252.2 342.6 255.2 343 256.6 343.1C252.6 334.6 246.8 321.3 243.5 313.7C240.3 306.3 235.1 294 230.9 282C230 282.3 229 282.4 228.1 282.4C227 282.4 226.2 282.2 225.2 282C223.1 289.2 218 300.6 209.1 320.5L198.9 343.1C200.1 342.9 201.4 342.6 202.8 342.6C204.2 342.6 205.9 342.9 207 343.1C208.4 338.1 211.2 330.8 214 324.1C217.5 323.9 221 323.8 224.5 323.7C228.3 323.7 232 323.9 235.8 324.1L239.5 333.4L243.2 343.1ZM264.3 303.2C264.3 318.2 264.3 332.7 263.3 343.1C265.2 343 267.7 342.6 269.6 342.6C271.6 342.6 273.7 343 275.8 343.1C275.1 336 274.9 326.5 274.9 313.4C274.9 304.5 274.9 289.3 275.9 282.8C273.8 283.1 271.6 283.3 269.7 283.3C268.4 283.3 265.1 282.9 263.5 282.8C264.3 291.4 264.3 297.6 264.3 303.2V303.2ZM316.5 313.3C324.5 311.8 331.8 306.8 331.8 297.1C331.8 293.4 330.4 289.8 327.8 287.3C324 283.7 319.7 283 314 283C312 283 301.8 283.4 299.5 283.4C295 283.4 292.7 283.1 290.7 283C291.3 294.3 291.3 295.6 291.3 307.1C291.3 324 291.2 326 290.5 343.3C292.4 343 294.5 342.8 296.5 342.8C298.7 342.8 300.6 343.1 302.4 343.3C302.4 341 302 329.7 302 327.1V314.6H304.1C308.8 321.3 314.3 329 318.8 335.9C320.1 337.9 322.1 341.2 323.4 343.2C326 342.8 327.1 342.7 330.5 342.7C333.7 342.7 335.9 343 338.3 343.2C332.8 336.3 330.4 333.2 323.5 323.5C322.2 321.7 320.2 318.8 318.9 316.9L316.5 313.3ZM302.1 287.6C303.4 287.5 306.7 287.1 308.3 287.1C311.2 287.1 314.1 287.5 316.5 289.3C319.6 291.6 320.2 294.7 320.2 298.4C320.2 304.1 317 310.5 308.2 310.5C305.9 310.5 303.8 310.3 302.1 310.2V287.6ZM362.2 322.6C358.1 310.4 352.4 293.3 349.6 282.9C347.4 283.2 345.5 283.4 343.5 283.4C341.4 283.4 338.4 283.1 336.6 282.9C340.2 292.4 343.3 300.8 345.7 307.5C349.7 318.9 352.4 326.8 355.5 336.5L357.7 343.2C358.9 342.9 360.3 342.7 361.3 342.7C362.3 342.7 363.1 342.9 364.6 343.2C366 338.6 367.7 333 368.9 329.4C372.3 319.4 372.8 318 377.2 305.5L379.8 298.2C380.8 301 382.4 305.5 383.4 308.3C384.4 311 388.9 324.5 389.9 327.5C391.3 331.4 391.7 332.6 394.9 343.2C395.7 343.1 397.4 342.7 398.7 342.7C399.9 342.7 400.9 343 402.2 343.2C405.5 332.8 405.9 331.7 410.8 317.6C415.6 303.9 418.6 296.1 423.9 282.9C421.3 283.6 418.5 283.6 415.9 282.9C412.7 294.3 411.2 299.9 408.6 307.4C404.5 319.7 403.9 321.1 401.4 327.8C398.6 320.2 395.9 312.6 393.3 304.9C391.9 300.7 386.5 283.1 386.5 282.9C385.3 283.2 384.4 283.4 382.6 283.4C381 283.4 379.9 283.1 378.7 282.9C376.1 293.6 366.8 319.4 365.9 321.8L363.7 327.5L362.2 322.6ZM450.8 318.6C448.1 318.8 445.4 318.9 442.7 318.9C439.6 318.9 436.6 318.6 433.6 318.6L442.5 297L450.8 318.6ZM460.8 343.1C462.4 343 464.9 342.6 467.3 342.6C469.8 342.6 472.8 343 474.1 343.1C470.2 334.6 464.4 321.3 461 313.7C457.8 306.3 452.6 294 448.4 282C447.4 282.3 446.6 282.4 445.6 282.4C444.6 282.4 443.6 282.2 442.7 282C440.6 289.2 435.5 300.6 426.6 320.5L416.4 343.1C417.6 342.9 418.9 342.6 420.4 342.6C421.8 342.6 423.5 342.9 424.6 343.1C426 338.1 428.8 330.8 431.6 324.1C435.1 323.9 438.6 323.8 442.1 323.7C445.9 323.7 449.6 323.9 453.3 324.1L457 333.4L460.8 343.1ZM497.6 319.6C497.6 318.8 498.1 317.9 498.7 316.8C502.4 310.5 505.8 303.9 509.8 297.6C511.1 295.5 517.5 285.3 518.9 282.9C517.9 283.3 517 283.4 515.2 283.4C513.5 283.4 511.8 283.2 510.1 282.9C503.8 296.8 502.4 299.8 494.9 312.6C487.4 299.5 484.1 292.6 479.5 282.9C477.1 283.3 474.7 283.5 472.3 283.4C470.4 283.4 468.3 283.2 465.1 282.9C469.7 290.5 477.1 302.7 481.6 310.4L486.8 319.4C486.8 324.9 486.5 336.3 486.3 343.2C488 343 490.4 342.7 492.2 342.7C494.2 342.7 496.3 343 498.3 343.2C497.9 335 497.7 330.3 497.7 322.9L497.6 319.6ZM523.9 330C523.5 334.2 523.4 335.4 521.9 339.9C525.1 341.5 530.8 344.4 538.3 344.4C554.4 344.4 560.6 334.1 560.6 325.2C560.6 322.7 560 317.6 556.3 313.6C553.8 310.8 551.1 309.8 544.4 307.2C536.7 304.2 532.2 302.5 532.2 296.1C532.2 290.9 535.6 286.6 542.6 286.6C548.1 286.6 552.8 289.2 554.1 294.2H555.3C556.1 290.9 556.3 290.2 558 285.9C553.7 284 549.8 282.3 543.4 282.3C527.5 282.3 522.9 292.1 522.9 299.9C522.9 307.2 525.5 311.7 534 315.5C536.5 316.6 540.6 318.1 543 319.2C544.7 319.9 550.2 322.3 550.2 329.3C550.2 335.6 545.6 340.3 538.7 340.3C533.5 340.3 529.1 339 525.1 330.2H523.9V330Z" fill="white"></path>
<path d="M36.1 167.7C36.1 101.3 71.7 83.3999 98.5 83.3999C141.7 83.3999 160.4 119.2 160.4 157.4C160.4 179.3 157.8 199.8 147 216.4C136.2 233 118.3 243 98.8 243C50.1 243 36.1 196.6 36.1 167.7V167.7ZM167.3 303.4C175.2 297.9 187.6 291 196.5 287.1L137 250.1C173.6 237.2 196.5 204.5 196.5 160C196.5 96.7999 148.3 69.8999 99 69.8999C45.8 69.8999 0 99.3999 0 166.4C0 180.6 3.2 207.5 25.3 229.9C48.2 253.1 75.4 256.5 98.3 256.5C101.2 256.5 104.1 256.5 107 256.2L167.3 303.4ZM319.4 179.3C311.2 179.8 303.3 180.4 295.1 180.4C285.9 180.4 276.9 179.6 267.7 179.3L294.6 114.5L319.4 179.3ZM349.2 252.8C353.9 252.5 361.3 251.2 368.7 251.2C376.1 251.2 385.3 252.5 389.3 252.8C377.4 227.2 360.1 187.5 350 164.5C340.5 142.4 324.7 105.5 312.1 69.3999C309.2 70.1999 306.6 70.6999 303.7 70.6999C300.5 70.6999 297.9 70.1999 295 69.3999C288.7 90.9999 273.4 125.3 246.8 184.8L216.2 252.8C219.9 252.3 223.6 251.2 228.1 251.2C232.3 251.2 237.3 252.3 240.7 252.8C244.9 237.8 253.4 215.9 261.8 195.6C272.3 195.1 282.9 194.6 293.4 194.6C304.7 194.6 315.8 195.1 327.1 195.6L338.1 223.5L349.2 252.8ZM466.1 119.2C466.1 109.2 466.4 99.1999 466.6 89.6999C484.8 89.6999 503.5 89.9999 519 91.4999C518.2 87.2999 517.7 84.8999 517.7 81.9999C517.7 79.8999 518.2 76.4999 519 71.9999C493.7 73.2999 470.5 73.5999 448.7 73.5999C428.4 73.5999 399.2 73.2999 378.4 71.9999C379.2 75.1999 379.7 78.5999 379.7 81.6999C379.7 84.7999 379.2 88.2999 378.4 91.3999C391.9 90.0999 417.1 89.5999 419.5 89.5999H432.7C433 99.8999 433.2 109.1 433.2 118.9L433.5 192.4C433.5 212.4 431.9 232.7 430.9 252.7C440.4 251.7 444.3 251.1 448.8 251.1C452 251.1 460.4 251.9 468 252.7C467.2 245.3 466.2 236.6 466.2 216.6L466.1 119.2ZM612.7 179.3C604.5 179.8 596.6 180.4 588.5 180.4C579.3 180.4 570.3 179.6 561.1 179.3L588 114.5L612.7 179.3ZM642.5 252.8C647.2 252.5 654.6 251.2 662 251.2C669.4 251.2 678.6 252.5 682.6 252.8C670.7 227.2 653.4 187.5 643.3 164.5C633.8 142.4 618 105.5 605.4 69.3999C602.5 70.1999 599.9 70.6999 597 70.6999C593.8 70.6999 591.2 70.1999 588.3 69.3999C582 90.9999 566.7 125.3 540.1 184.8L509.5 252.8C513.2 252.3 516.9 251.2 521.4 251.2C525.6 251.2 530.6 252.3 534 252.8C538.2 237.8 546.6 215.9 555.1 195.6C565.6 195.1 576.2 194.6 586.7 194.6C598 194.6 609.1 195.1 620.4 195.6L631.5 223.5L642.5 252.8ZM788.7 163.2C812.7 158.7 834.5 143.7 834.5 114.5C834.5 103.4 830.3 92.5999 822.4 84.9999C811 74.1999 798.1 71.9999 781 71.9999C774.9 71.9999 744.4 73.2999 737.5 73.2999C724.1 73.2999 717.2 72.4999 711.2 71.9999C713 106 713 109.7 713 144.2C713 195.1 712.7 200.8 710.6 252.7C716.4 251.9 722.7 251.1 728.8 251.1C735.4 251.1 741.2 252.2 746.4 252.7C746.4 245.8 745.4 211.9 745.4 204.2V166.8H751.7C765.9 186.8 782.3 210 795.7 230.8C799.6 236.9 805.4 246.6 809.4 252.7C817.3 251.7 820.5 251.1 830.7 251.1C840.2 251.1 846.8 251.9 854.2 252.7C837.6 231.9 830.5 222.7 809.7 193.4C805.7 187.9 800 179.2 796 173.6L788.7 163.2ZM745.5 86.2999C749.4 85.9999 759.2 84.9999 764.2 84.9999C772.9 84.9999 781.6 86.2999 788.7 91.5999C797.9 98.4999 799.8 107.9 799.8 119C799.8 136.1 790.1 155.4 763.7 155.4C756.8 155.4 750.5 154.9 745.5 154.6V86.2999Z" fill="white"></path>
<path d="M1182.5 163.7C1182.5 165.4 1158.7 167 1124.6 168.3C1118.6 164.9 1114 161.5 1110.7 158.5C1152 160 1182.5 161.8 1182.5 163.7V163.7ZM1158 106.2C1158 107.6 1138 108.9 1109.4 110.1C1113.6 107.6 1117.9 105.2 1122.2 102.9C1143.8 103.9 1158 105 1158 106.2ZM945.1 229.9C931.9 230.1 920.3 230.1 911.2 230.1C898.2 230.1 887.6 226.1 887.6 221.1C887.6 216.1 898.2 212.1 911.2 212.1C922.7 212.1 938.4 212.2 956.3 212.4C949.4 222.4 946.1 228.4 945.7 228.8L945.1 229.9ZM952.2 241.9C956.5 247.1 961.2 252 966.3 256.4C966.3 256.4 968.4 259.4 974.8 256.8C981.3 254.1 986.9 250.5 993.1 242.2C1011.3 242.5 1030.6 242.9 1049.6 243.3C1051.2 245.6 1054.3 250.3 1058.2 256.1C1005.3 257.5 947.8 258.3 918.3 258.3C906 258.3 896.1 254.5 896.1 249.8C896.1 245.1 906 241.3 918.3 241.3C927.3 241.3 938.8 241.4 952 241.5C952.2 241.8 952.2 241.9 952.2 241.9V241.9ZM931.7 286.1C920.8 286.1 912 282.7 912 278.6C912 274.5 920.8 271.1 931.7 271.1C960.5 271.1 1019.5 272 1070 273.4C1072.4 276.9 1074.9 280.4 1077.2 283.6C1025.2 285.1 961.9 286.1 931.7 286.1V286.1ZM1099.6 310.1C1057.2 312 984.2 313.2 953.8 313.2C945.3 313.2 938.3 310.5 938.3 307.3C938.3 304 945.2 301.4 953.8 301.4C982.8 301.4 1050.9 302.5 1093.9 304.3C1095.9 306.3 1097.8 308.3 1099.6 310.1V310.1ZM988.9 326C1013.9 326 1090.2 327.9 1090.2 330.2C1090.2 332.5 1014 334.4 988.9 334.4C984 334.4 980.1 332.5 980.1 330.2C980 327.9 984 326 988.9 326ZM989.2 171.9C957.7 172.4 929.4 172.7 911.3 172.7C898.3 172.7 887.7 168.7 887.7 163.7C887.7 158.7 898.3 154.7 911.3 154.7C932.4 154.7 967.1 155.1 1004.7 155.8C999.3 161 994.2 166.4 989.2 171.9ZM1143.8 131.7C1162.3 132.7 1173.9 133.8 1173.9 134.9C1173.9 136.2 1159.8 137.4 1138.1 138.4C1142.7 134.9 1143.7 131.9 1143.8 131.7ZM918.5 143.4C906.2 143.4 896.3 139.6 896.3 134.9C896.3 130.2 906.2 126.4 918.5 126.4C943.7 126.4 989.3 127 1035.1 128C1029.7 132.6 1024.4 137.2 1019.1 142C978.9 142.9 940.7 143.4 918.5 143.4V143.4ZM1055.3 111.8C1008.5 113 957.8 113.7 931.7 113.7C920.8 113.7 912 110.4 912 106.2C912 102.1 920.8 98.6999 931.7 98.6999C960.4 98.6999 1019.3 99.5999 1069.8 101C1067.3 102.8 1064.8 104.7 1062.2 106.6C1059.9 108.4 1057.6 110.1 1055.3 111.8ZM953.9 83.3999C945.4 83.3999 938.4 80.7999 938.4 77.4999C938.4 74.1999 945.3 71.5999 953.9 71.5999C986.1 71.5999 1066.4 72.9999 1107.2 74.9999C1104.6 76.6999 1102 78.4999 1099.4 80.1999C1056.8 82.0999 984.1 83.3999 953.9 83.3999V83.3999ZM908.8 201.6C895.5 201.6 884.8 197.5 884.8 192.4C884.8 187.4 895.6 183.3 908.8 183.3C925.4 183.3 950.3 183.5 978.5 184C973.7 189.6 969.1 195.3 964.7 201.2C942.2 201.4 922.6 201.6 908.8 201.6V201.6ZM980 54.5999C980 52.2999 983.9 50.3999 988.8 50.3999C1013.8 50.3999 1090.1 52.2999 1090.1 54.5999C1090.1 56.8999 1013.9 58.7999 988.8 58.7999C984 58.7999 980.1 56.8999 980 54.5999Z" fill="white"></path>
<path d="M1185 185.6C1185.2 190.2 1185.2 194.7 1184.9 199.1C1140.5 200.9 1098.5 203.5 1098.5 206.5C1098.5 209.5 1139.6 212.1 1183.5 213.8C1182.7 218.8 1181.7 223.8 1180.5 228.7C1137.3 230.5 1097.2 233.1 1097.2 236C1097.2 238.8 1134.6 241.4 1176.1 243.1C1174.2 248.3 1172.1 253.5 1169.6 258.5C1134 260.2 1104.6 262.5 1104.6 265C1104.6 267.3 1130.3 269.5 1162.7 271.1C1160.9 274 1159 276.9 1157 279.7C1154.8 282.7 1152.6 285.7 1150.2 288.6C1129.9 290.1 1116 291.9 1116 293.8C1116 295.4 1126 296.9 1141.3 298.3C1132.3 307.1 1122.3 314.8 1111.4 321.1C1111.4 321.1 1097.7 309.3 1086.3 295.5C1076.2 283.2 1054.7 250.7 1049.7 243.4C1044.6 236.1 1041.3 234 1035.4 236.1C1027.5 238.9 1018.3 240.3 1015.4 240.3C1012.5 240.3 1011 239.2 1015.8 237.3C1020.5 235.4 1039.2 226.6 1048.4 208.3C1058.7 187.8 1049.6 159.4 1049.6 159.4C1046.1 174.6 1038.2 180.2 1038.2 180.2C1040.8 166.1 1038 153.4 1031 144.4L1027.1 162.2C1027.1 162.2 1024.7 162.1 1018.7 167.1C1012.7 172.2 1011.1 179.5 1011.1 179.5C1015.8 181.4 1021.5 176.7 1021.5 176.7C1014.2 203.8 1003.9 225.9 996.3 237.6C988.7 249.3 982.5 253.7 974.9 256.8C968.5 259.4 966.4 256.4 966.4 256.4C961.3 252 956.5 247.1 952.3 241.9C952.3 241.9 951.9 241.3 953.1 241.3C956.2 241.3 961.8 236 963 233.8C964.4 231.3 964.2 229.3 963.5 229.2C962.8 229.1 961.6 231.1 955.6 234.9C949.6 238.7 946.9 236.1 944.9 234C943.4 232.3 944.9 230.2 945.8 228.9C946.7 227.7 978.4 168.7 1062.2 106.6C1172 25.3001 1242.2 3.30008 1246.2 1.70008C1248.9 0.700079 1253.2 -0.699921 1254.2 0.300079C1255.3 1.40008 1255.8 2.40008 1255.7 3.70008C1255.6 5.00008 1254.9 5.70008 1249.8 7.90008C1207.6 26.5001 1158.4 57.4001 1130.5 75.4001C1096.1 92.2001 1063.3 116.1 1062.1 116.7C1059.5 118.3 1061.4 120.7 1063 119.7C1121.1 81.1001 1189.1 54.8001 1264.4 33.2001C1268 32.2001 1270 32.2001 1270.6 33.0001C1271.3 33.9001 1271.6 34.9001 1271.7 36.0001C1271.8 37.4001 1270.7 38.1001 1267.6 39.3001C1186.8 69.3001 1127.2 97.2001 1088.9 123C1088.9 123 1084.9 125.4 1084.9 128.2C1084.9 129.3 1087 129.4 1087 129.4C1106.2 129.7 1131.8 130.9 1144 131.6C1144 131.6 1142.3 137.8 1130.6 142.8C1121.6 146.6 1113.2 146 1105 146.1C1103.2 146.1 1101.6 147.9 1103.1 149.9C1103.5 150.9 1121.1 179.2 1185 185.6V185.6ZM599.3 333.6H588.5C588.5 333.6 587 326.9 591 324.4C594.9 321.8 599.4 319.8 599.4 319.8L599.3 333.6ZM650.7 308.7C650.7 308.7 644.1 312.5 640 316.2C635.9 319.9 640.9 321.3 640.9 321.3V333.7H609.5V290.3C609.5 290.3 598 300.8 597 302.2C595.9 303.7 599.7 305 599.7 305L599.1 309.1C599.1 309.1 594.5 311.5 589 315.2C583.5 318.9 579.4 323.6 579.4 326.9C579.4 330.2 578 343 578 343H650.8V308.7H650.7ZM585.6 292.8C589.2 292.8 591.7 291.4 591.7 288.5C591.7 285.6 590 283.6 585.6 283.6C581.7 283.6 580.6 285.3 580.6 288.5C580.6 291.7 582 292.8 585.6 292.8ZM599 292.8C602.6 292.8 605.1 291.4 605.1 288.5C605.1 285.6 603.4 283.6 599 283.6C595 283.6 594 285.3 594 288.5C594 291.7 595.4 292.8 599 292.8ZM619.3 346.8C615.4 346.8 614.3 348.5 614.3 351.6C614.3 354.7 615.7 355.9 619.3 355.9C622.9 355.9 625.4 354.5 625.4 351.6C625.5 348.8 623.8 346.8 619.3 346.8ZM633.2 346.8C629.3 346.8 628.2 348.5 628.2 351.6C628.2 354.7 629.6 355.9 633.2 355.9C636.8 355.9 639.3 354.5 639.3 351.6C639.4 348.8 637.7 346.8 633.2 346.8ZM790.2 292C793.8 292 796.3 290.6 796.3 287.8C796.3 285 794.6 282.9 790.2 282.9C786.3 282.9 785.2 284.6 785.2 287.8C785.2 290.9 786.6 292 790.2 292ZM804.1 292C807.7 292 810.2 290.6 810.2 287.8C810.2 285 808.5 282.9 804.1 282.9C800.2 282.9 799.1 284.6 799.1 287.8C799.1 290.9 800.5 292 804.1 292ZM842.5 293.2C840.5 294.9 841.1 296.9 843.6 296.6V343.2H854V285.2C854 285.2 844.5 291.5 842.5 293.2ZM801.1 319.3H794.4C794.4 315.6 801.1 313.6 801.1 313.6V319.3ZM757.1 327C757.1 328.7 757 331.4 756.9 333.7H698.6V323.4C700.1 319.5 702.7 319 706.7 319H749.3C758.5 319 757.1 323.8 757.1 327ZM825.3 296.6V333.7H811.4V300C811.4 300 808.6 301.1 804.7 302.8C800.8 304.6 786.9 310.2 786.9 317.9V326.8H801.1V333.7H767.4C767.4 332.1 767.5 329.7 767.5 326.2C767.5 315.1 758.1 309.1 749.7 309.1H710.7C703.9 309.1 700.6 310.8 698.7 312.6V284.1C698.7 284.1 692.6 288.4 688.1 291.8C683.6 295.2 688.1 297.5 688.1 297.5V333.7H675.3L675 302.6C675 302.6 666.1 309.1 663.6 311.1C661.1 313.1 662.5 314.8 665.3 314.8C665.3 314.8 664.8 337.7 664.8 343.2C664.8 348.7 660.3 354.9 650.8 352C650.8 352 647.8 352.6 650.3 354.9C652.8 357.2 655.8 358.9 659.2 358.9C662.5 358.9 674.8 356.6 674.8 343.2H835.6V285.3C835.6 285.3 826.1 291.6 824.2 293.2C822.2 294.8 822.8 296.9 825.3 296.6" fill="white"></path>
</g>
<defs>
<clipPath id="f9b3f28e-8af8-43c5-85d0-9075b5643d22">
<rect width="1271.5" height="358.8" fill="white"></rect>
</clipPath>
</defs>
</svg>