<svg width="426" height="89" viewBox="0 0 426 89" fill="none" xmlns="http://www.w3.org/2000/svg">
<path fill-rule="evenodd" clip-rule="evenodd" d="M89.1383 0H0V89H89.1383V0ZM54.7908 27.1823C56.5275 26.3239 58.2541 25.4705 60.8318 23.9576C62.9006 26.9898 63.3857 33.9669 63.45 39.4912C65.2244 35.9932 67.372 22.7881 66.4724 20.3851C69.1961 18.5826 69.6608 17.7037 70.237 16.6142C70.3475 16.4052 70.4621 16.1884 70.5976 15.9558C69.8633 16.0211 69.2011 16.0731 68.5955 16.1208C66.4727 16.2877 65.0474 16.3998 63.6635 16.8313C59.1444 14.0723 49.8222 11.2264 42.1957 10.6345C44.592 11.6383 54.2252 16.8479 55.4151 18.4872C50.2824 19.1805 40.5601 22.0886 35.6554 24.7027C41.2898 23.4567 49.1816 22.8047 54.6108 22.517C52.488 25.6279 51.2961 27.2092 47.8653 30.9244C50.9531 29.0791 52.878 28.1277 54.7908 27.1823ZM13.3481 66.5409C15.8149 68.8446 18.0579 70.1837 21.1694 71.3366C17.9024 71.2372 15.4376 70.7964 12.5582 69.9643C12.3344 72.0072 12.4774 73.5533 13.0226 75.501C10.7009 73.2139 9.26842 71.2124 7.88367 68.2485C5.30902 67.048 3.44541 65.9635 1.13818 64.554C2.78413 63.813 4.19998 63.3287 6.20248 62.7719C5.57851 59.2574 5.76093 56.1052 6.24601 51.6904C7.14983 55.8568 7.95415 58.8497 9.72862 61.9502C11.9094 61.5362 13.7751 61.2527 16.3041 60.8739C14.9297 62.9147 14.086 64.5043 13.3481 66.5409ZM26.8763 32.1C27.1811 31.0113 28.3046 28.6683 29.2748 27.412C27.8423 27.6231 23.6839 29.4424 20.9455 31.6012C20.9455 31.6012 19.0881 31.4273 16.0181 31.5143C12.95 31.655 8.95747 32.3981 7.40274 33.0314C10.4003 33.1639 14.4986 33.9525 16.0616 35.5338C16.0616 35.5338 11.5176 39.605 7.04204 48.5547C7.04204 48.5547 15.1847 40.911 18.7233 39.0192C18.7233 39.0192 20.5683 45.1727 21.8431 48.2463C21.8431 48.2463 22.9791 41.1366 24.8718 36.9971C24.8718 36.9971 25.4066 36.6928 28.0061 36.4465C30.6243 36.2126 34.3204 36.0574 41.3354 37.2993C41.3354 37.2993 34.8988 33.1866 26.8763 32.1ZM33.5804 70.9661C35.0677 69.3113 36.4708 67.5829 37.7844 65.7875C37.8322 66.9712 37.911 68.1535 38.0207 69.3331C40.3891 68.2232 42.6523 66.9022 44.7828 65.386C42.6787 67.5117 40.8441 69.2834 38.3151 71.2372C38.4669 72.0735 38.6705 72.8995 38.9245 73.7106C37.9626 73.899 36.6504 73.99 35.2491 73.9362C32.5625 75.5217 28.9576 76.6849 26.213 77.3327C27.8999 76.2591 29.4885 75.0388 30.9601 73.6858C29.2678 73.3538 27.6302 72.7874 26.0948 72.0031C28.6274 72.0253 31.1495 71.6759 33.5804 70.9661Z" fill="white"/>
<path d="M111.487 60.0233C114.406 60.0233 117.586 61.0167 117.586 63.6971C117.586 65.1521 116.332 66.4395 114.464 67.0812C116.943 67.9836 118.374 69.8795 118.374 71.7423C118.374 75.0063 114.406 76.5814 110.668 76.5814H102.121C102.325 74.5116 102.385 71.1731 102.385 67.9091C102.385 65.7586 102.354 62.093 102.15 60.0233H111.487ZM109.095 61.8985C108.336 61.8985 107.578 61.9543 107.2 62.0123C107.113 63.9677 107.073 65.9249 107.08 67.8822C107.08 70.7095 107.08 70.3721 107.2 74.5116H109.474C112.159 74.5116 113.444 73.1559 113.444 71.5249C113.444 69.718 111.779 68.3023 109.59 68.3023H108.278L109.182 66.2326H110.146C111.253 66.2326 112.741 65.5682 112.741 64.1379C112.741 62.6229 111.371 61.8985 109.095 61.8985ZM135.706 60.0233C135.561 62.093 135.472 66.365 135.472 67.907C135.472 69.3372 135.503 72.4419 135.706 76.5814H131.999L125.557 67.3337C125.061 66.63 126.145 65.4812 124.072 64.6926V69.6725C124.072 71.5684 125.113 74.5116 125.289 76.5814H121.058C121.321 72.4419 121.35 69.2772 121.35 67.907C121.35 66.425 121.261 62.093 121.147 60.0233H125.961L131.438 68.1285C131.701 68.5341 130.291 68.6852 132.364 69.035V60.0233H135.706ZM147.171 60.0233C150.586 60.0233 154.701 60.9319 154.701 64.5726C154.701 67.7766 151.782 69.3538 145.859 69.3538C145.509 69.3538 144.545 69.8236 144.286 69.7926C144.4 71.9782 144.373 74.5116 144.516 76.5814H139.352C139.557 72.4419 139.615 70.4445 139.615 67.907C139.615 65.6654 139.557 62.093 139.352 60.0233H147.171ZM144.342 62.0992C144.342 63.1176 144.286 64.1711 144.286 65.1894C144.286 65.9449 144.313 66.5265 144.342 67.0853C144.516 67.1101 145.335 67.1101 145.859 67.1101C147.522 67.1101 149.829 66.6465 149.829 64.5188C149.829 62.4511 147.464 62.0682 145.683 62.0682C145.451 62.0682 144.576 62.0682 144.342 62.0992ZM170.982 60.0233C174.396 60.0233 178.511 60.9319 178.511 64.5726C178.511 67.7766 175.592 69.3538 169.668 69.3538C169.317 69.3538 168.355 69.8236 168.094 69.7926C168.21 71.9782 168.181 74.5116 168.326 76.5814H163.162C163.368 72.4419 163.424 70.4445 163.424 67.907C163.424 65.6654 163.368 62.093 163.162 60.0233H170.982ZM168.152 62.0992C168.152 63.1176 168.094 64.1711 168.094 65.1894C168.094 65.9449 168.123 66.5265 168.152 67.0853C168.326 67.1101 169.145 67.1101 169.668 67.1101C171.332 67.1101 173.637 66.6465 173.637 64.5188C173.637 62.4511 171.274 62.0682 169.493 62.0682C169.261 62.0682 168.384 62.0682 168.152 62.0992ZM187.69 60.0233C188.273 62.093 193.465 72.4419 194.661 76.5814H189.498C189.294 74.5116 188.886 74.642 188.125 72.6592C187.34 72.6343 186.521 72.3922 185.443 72.3922C184.392 72.3922 183.631 72.7813 182.787 72.8103C182.319 74.0956 181.911 74.5116 181.531 76.5814H177.039C177.914 74.5116 183.078 62.093 184.01 60.0233H187.69ZM187.251 69.7946C186.639 68.2775 185.791 66.3836 185.383 65.0735C184.945 66.4126 184.01 68.4803 183.546 69.7946C184.129 69.8215 184.916 69.8505 185.443 69.8505C186.171 69.8505 186.552 69.8195 187.251 69.7946ZM204.322 60.0233C207.763 60.0233 211.878 61.1947 211.878 64.8375C211.878 66.7852 210.418 68.6397 208.142 69.5421C208.608 70.3597 212.433 74.5096 213.19 76.5793H207.562C206.569 74.5096 204.672 70.9413 202.804 68.1719C205.049 68.4658 207.006 67.1453 207.006 64.9907C207.006 62.923 204.612 62.1882 203.445 62.1882C202.92 62.1882 201.927 62.1282 201.577 62.1572C201.503 64.0646 201.464 65.9733 201.461 67.8822C201.461 69.2523 201.461 72.4398 201.722 76.5793H196.471C196.734 72.4398 196.792 71.0572 196.792 67.9049C196.792 65.2598 196.763 62.091 196.529 60.0212H204.322V60.0233ZM220.424 60.0233C220.306 62.093 220.221 66.425 220.221 67.938C220.221 69.3372 220.221 72.4419 220.424 76.5814H215.232C215.493 72.4419 215.522 69.2772 215.522 67.938C215.522 66.454 215.435 62.093 215.319 60.0233H220.424ZM233.177 60.0233C236.094 60.0233 239.274 61.0167 239.274 63.6971C239.274 65.1521 238.022 66.4395 236.152 67.0812C238.631 67.9836 240.062 69.8795 240.062 71.7423C240.062 75.0063 236.094 76.5814 232.359 76.5814H223.81C224.015 74.5116 224.073 71.1731 224.073 67.9091C224.073 65.7586 224.044 62.093 223.841 60.0233H233.177ZM230.785 61.8985C230.027 61.8985 229.268 61.9543 228.891 62.0123C228.804 63.9677 228.764 65.9249 228.772 67.8822C228.772 70.7095 228.772 70.3721 228.891 74.5116H231.165C233.851 74.5116 235.134 73.1559 235.134 71.5249C235.134 69.718 233.47 68.3023 231.283 68.3023H229.968L230.874 66.2326H231.838C232.947 66.2326 234.434 65.5682 234.434 64.1379C234.43 62.6229 233.059 61.8985 230.785 61.8985ZM251.297 60.0233C251.878 62.093 257.075 72.4419 258.269 76.5814H253.107C252.902 74.5116 252.491 74.642 251.735 72.6592C250.947 72.6343 250.13 72.3922 249.05 72.3922C247.999 72.3922 247.241 72.7813 246.395 72.8103C245.928 74.0935 245.52 74.5096 245.141 76.5793H240.648C241.523 74.5096 246.687 62.091 247.62 60.0212H251.297V60.0233ZM250.86 69.7946C250.244 68.2775 249.399 66.3836 248.992 65.0735C248.555 66.4126 247.62 68.4803 247.154 69.7946C247.734 69.8215 248.524 69.8505 249.05 69.8505C249.78 69.8505 250.157 69.8195 250.86 69.7946ZM266.221 59.5058C268.234 59.5058 271.254 59.7976 271.254 60.1764V64.1731C269.181 63.1796 268.002 62.3331 265.754 62.3331C263.976 62.3331 263.938 63.0348 263.938 63.5543C263.938 66.2077 272.937 66.2346 272.937 70.9868C272.937 74.0728 269.641 76.0246 264.828 76.0246C262.67 76.0246 260.891 75.5879 258.818 75.0974V71.2786C262.964 72.8227 264.293 73.3153 265.81 73.3153C267.038 73.3153 268.153 72.7627 268.153 71.7154C268.153 68.7163 259.251 69.006 259.251 63.9082C259.249 61.1099 262.077 59.5058 266.221 59.5058ZM298.408 68.3023C298.319 70.3721 298.232 72.951 298.174 74.8159C296.482 75.6873 293.825 76.1012 291.258 76.1012C285.425 76.1012 281.687 72.3942 281.687 67.8759C281.687 63.13 285.601 59.5244 291.99 59.5244C293.449 59.5244 295.638 59.748 297.183 60.1267L296.047 63.2107C294.967 62.5401 293.157 61.9833 291.932 61.9833C288.257 61.9833 286.942 65.2453 286.942 67.8677C286.942 72.2639 289.308 73.6941 291.961 73.6941C292.282 73.6941 293.304 73.8224 293.626 73.7355C293.626 71.8416 293.595 68.3003 293.451 68.3003H298.408V68.3023ZM309.289 60.0233C312.732 60.0233 316.847 61.1947 316.847 64.8375C316.847 66.7852 315.388 68.6397 313.11 69.5421C313.58 70.3597 317.401 74.5096 318.159 76.5793H312.529C311.536 74.5096 309.639 70.9413 307.772 68.1719C310.021 68.4658 311.972 67.1453 311.972 64.9907C311.972 62.923 309.581 62.1882 308.412 62.1882C307.888 62.1882 306.897 62.1282 306.544 62.1572C306.457 64.0821 306.43 66.8369 306.43 67.8822C306.43 69.2523 306.43 72.4398 306.69 76.5793H301.441C301.702 72.4398 301.76 71.0572 301.76 67.9049C301.76 65.2598 301.729 62.091 301.497 60.0212H309.289V60.0233ZM327.556 76.0536C322.654 76.0536 318.976 72.7027 318.976 67.7828C318.976 62.8278 322.652 59.5058 327.556 59.5058C332.428 59.5058 336.103 62.8278 336.103 67.7828C336.103 72.7027 332.428 76.0536 327.556 76.0536ZM327.556 61.5197C325.278 61.5197 323.85 63.7323 323.85 67.7828C323.85 71.8271 325.278 73.9859 327.556 73.9859C329.803 73.9859 331.205 71.8271 331.205 67.7828C331.205 63.7323 329.803 61.5197 327.556 61.5197ZM343.4 60.0233C343.311 60.0233 343.808 62.0433 343.808 63.1486V70.6349C343.808 72.6778 344.495 73.87 346.509 73.87C348.259 73.87 350.027 73.1704 350.027 69.9623V62.3621C350.027 60.7642 349.379 60.0212 349.264 60.0212H353.612C353.437 62.091 354.173 63.844 354.173 66.3795V70.8357C354.173 74.4475 350.796 76.0226 345.778 76.0226C341.228 76.0226 337.589 75.0622 337.589 70.606V64.8665C337.589 63.4094 338.468 60.0212 338.294 60.0212H343.4V60.0233ZM364.495 60.0233C367.909 60.0233 372.026 60.9319 372.026 64.5726C372.026 67.7766 369.107 69.3538 363.182 69.3538C362.83 69.3538 361.868 69.8236 361.607 69.7926C361.723 71.9782 361.694 74.5116 361.841 76.5814H356.675C356.881 72.4419 356.937 70.4445 356.937 67.907C356.937 65.6654 356.881 62.093 356.675 60.0233H364.495ZM361.665 62.0992C361.665 63.1176 361.607 64.1711 361.607 65.1894C361.607 65.9449 361.636 66.5265 361.665 67.0853C361.841 67.1101 362.658 67.1101 363.18 67.1101C364.843 67.1101 367.148 66.6465 367.148 64.5188C367.148 62.4511 364.785 62.0682 363.004 62.0682C362.772 62.0682 361.897 62.0682 361.665 62.0992ZM110.337 14.4884C110.163 16.5581 109.561 18.0442 109.561 20.0912V36.0864C109.561 38.953 110.905 41.3436 115.517 41.3436C119.481 41.3436 121.999 40.0831 121.999 33.5219V18.5244C121.999 15.308 122.743 14.4884 122.613 14.4884H129.275C128.925 16.5581 128.218 21.3931 128.218 26.4785V35.3019C128.218 42.1715 124.968 45.0381 115.65 45.0381C107.204 45.0381 103.342 42.8214 103.342 33.7827V23.4815C103.342 20.5238 102.37 16.5581 102.107 14.4884H110.337ZM163.745 14.4884C162.134 16.5581 153.776 24.8041 151.556 27.0229C153.297 29.3679 163.395 43.4651 165.225 43.4651H155.604C153.6 41.3953 147.766 32.5119 144.98 28.9912C144.98 32.6423 145.024 41.3953 145.418 43.4651H136.97C137.406 39.3256 137.449 30.9306 137.449 28.2813C137.449 25.3257 137.277 16.5581 137.014 14.4884H145.372C145.154 16.5581 144.98 24.6178 144.98 28.0929C150.424 22.6163 153.036 18.6279 156.214 14.4884H163.745ZM184.284 14.4884C190.683 14.4884 198.302 16.0283 198.302 23.0696C198.302 27.0249 195.994 29.074 191.423 30.4649C192.076 31.7668 199.433 43.4651 200.652 43.4651H191.552C189.552 41.3953 185.022 32.516 181.714 27.561C182.282 27.6914 183.109 28.0184 184.066 28.0184C186.722 28.0184 190.466 26.2281 190.466 22.7053C190.466 18.3174 185.153 17.5951 182.497 17.5951C181.15 17.5951 179.844 17.7131 179.189 17.7979C179.035 21.1903 178.948 24.5854 178.928 27.9812C178.928 30.6739 178.928 39.3256 179.406 43.4651H170.922C171.355 39.3256 171.444 34.5403 171.444 28.2399C171.444 22.9351 171.401 16.5581 171.007 14.4884H184.284ZM216.759 13.3955C220.505 13.3955 223.575 13.9606 225.648 14.5691V21.2627C223.575 19.7849 220.592 18.394 215.758 18.394C211.403 18.394 211.38 20.0022 211.38 21.1323C211.38 26.6524 229.172 25.9135 229.172 35.5627C229.172 41.5175 223.946 45.0381 214.977 45.0381C210.839 45.0381 206.989 44.2992 204.917 43.4734V36.8253C211.135 39.3897 213.77 40.257 216.863 40.257C220.304 40.257 222.077 39.2573 222.077 36.9992C222.077 31.0444 204.158 31.9117 204.158 21.7843C204.16 16.4381 209.054 13.3955 216.759 13.3955ZM244.649 14.4884C244.388 16.5581 244.214 25.2822 244.214 28.2813C244.214 30.9306 244.258 39.3256 244.649 43.4651H236.206C236.641 39.3256 236.683 30.9306 236.683 28.2813C236.683 25.3257 236.509 16.5581 236.291 14.4884H244.649ZM268.283 14.4884C273.725 14.4884 279.471 16.2456 279.471 21.2876C279.471 24.3322 276.903 26.9049 273.028 27.9046C278.296 29.5128 281.041 31.7958 281.041 35.6642C281.041 41.8362 273.725 43.4651 266.76 43.4651H252.612C253.003 41.3953 253.091 34.4554 253.091 28.2399C253.091 24.0652 253.047 18.6279 252.653 14.4884H268.283ZM263.584 17.3943C262.583 17.3943 261.451 17.4812 260.885 17.5682C260.711 21.6104 260.622 23.7837 260.622 28.48C260.622 33.998 260.622 36.3037 260.837 40.7806C261.839 40.8241 263.451 40.8241 264.365 40.8241C270.244 40.8241 273.159 39.4994 273.159 36.1071C273.159 32.1104 268.327 31.0465 264.67 31.0465H262.972L264.67 26.907H265.715C268.194 26.907 271.72 25.3257 271.72 22.281C271.725 19.0646 269.548 17.3943 263.584 17.3943ZM302.191 14.4884C307.633 14.4884 313.377 16.2456 313.377 21.2876C313.377 24.3322 310.809 26.9049 306.936 27.9046C312.204 29.5128 314.944 31.7958 314.944 35.6642C314.944 41.8362 307.633 43.4651 300.663 43.4651H286.517C286.909 41.3953 286.996 34.4554 286.996 28.2399C286.996 24.0652 286.953 18.6279 286.559 14.4884H302.191ZM297.488 17.3943C296.488 17.3943 295.357 17.4812 294.789 17.5682C294.614 21.6104 294.525 23.7837 294.525 28.48C294.525 33.998 294.525 36.3037 294.741 40.7806C295.742 40.8241 297.357 40.8241 298.267 40.8241C304.148 40.8241 307.063 39.4994 307.063 36.1071C307.063 32.1104 302.231 31.0465 298.574 31.0465H296.876L298.574 26.907H299.619C302.098 26.907 305.624 25.3257 305.624 22.281C305.628 19.0646 303.452 17.3943 297.488 17.3943ZM336.443 14.4884C337.618 16.5581 347.631 39.3256 349.982 43.4651H341.578C341.101 43.4651 340.1 40.0355 338.792 36.7756C337.05 36.7322 335.268 36.9288 332.786 36.9288C330.477 36.9288 328.736 36.6121 326.733 36.6556C325.776 39.22 324.992 41.3953 324.295 43.4651H316.982C318.723 41.3953 328.955 18.6279 330.564 14.4884H336.443ZM337.183 33.2612C335.744 29.8214 334.292 26.387 332.828 22.9579C331.242 26.3583 329.733 29.7935 328.3 33.2612C329.606 33.3026 331.391 33.346 332.828 33.346C334.223 33.346 335.703 33.3026 337.183 33.2612ZM381.406 14.4884C381.103 16.5581 380.929 25.2822 380.929 28.2399C380.929 30.9306 380.971 39.3256 381.452 43.4651H375.749L362.685 24.7793C361.555 23.0841 361.25 22.457 361.033 21.6746C361.033 26.3254 360.989 28.2668 360.989 32.396C360.989 36.1319 361.076 41.3953 361.379 43.4651H354.283C354.718 39.3256 354.764 30.9306 354.764 28.2399C354.764 25.2822 354.59 16.5581 354.372 14.4884H362.38L372.134 28.54C374.223 31.5846 374.658 31.0465 375.005 33.1163H375.05C374.787 28.9767 374.702 25.6713 374.528 21.8899L374.223 14.4884H381.406ZM415.921 14.4884C414.308 16.5581 405.95 24.8041 403.73 27.0229C405.473 29.3679 415.571 43.4651 417.401 43.4651H407.781C405.776 41.3953 399.943 32.5119 397.154 28.9912C397.154 32.6423 397.198 41.3953 397.592 43.4651H389.147C389.582 39.3256 389.625 30.9306 389.625 28.2813C389.625 25.3257 389.453 16.5581 389.19 14.4884H397.546C397.331 16.5581 397.154 24.6178 397.154 28.0929C402.598 22.6163 405.212 18.6279 408.388 14.4884H415.921Z" fill="white"/>
</svg>
