<svg width="965" height="180" viewBox="0 0 965 180" fill="none" xmlns="http://www.w3.org/2000/svg">
<path d="M160.446 0L113.501 128.977C112.921 130.565 111.905 131.957 110.57 132.995C109.235 134.033 107.634 134.673 105.952 134.844V134.905H155.578C159.463 134.905 162.789 132.434 164.027 128.981L210.988 0H160.446Z" fill="white"/>
<path d="M101.903 132.948C104.781 132.948 107.301 131.518 108.843 129.351C109.003 129.125 109.566 128.335 109.965 127.262L127.184 79.931L117.111 52.2897C116.524 50.8901 115.574 49.6727 114.358 48.7637C113.143 47.855 111.706 47.2876 110.198 47.1207C108.689 46.9538 107.164 47.1931 105.779 47.8143C104.394 48.4356 103.201 49.4157 102.322 50.6533C102.158 50.8794 101.487 51.8867 101.2 52.7419L83.9808 100.057L94.0991 127.809C94.7553 129.334 95.8444 130.634 97.2312 131.548C98.618 132.461 100.242 132.948 101.903 132.948Z" fill="white"/>
<path d="M105.582 45.0946H55.4102C51.5249 45.0946 48.1987 47.5532 46.9447 51.0233L0 180H50.5422L97.491 51.0274C98.1004 49.3495 99.1948 47.8908 100.636 46.837C102.077 45.7837 103.799 45.1826 105.582 45.111V45.0946Z" fill="white"/>
<path d="M468.31 136.837C446.779 136.837 433.157 124.094 433.157 104.321C433.157 83.2291 445.46 70.4864 465.234 70.4864H466.991C470.507 70.4864 474.022 70.4864 477.537 70.9258V45.4403H491.598V134.2C484.128 135.958 475.779 136.837 468.31 136.837ZM467.87 81.4715C454.249 81.4715 447.657 88.9414 447.657 103.881C447.657 117.503 455.567 125.851 468.749 125.851C471.385 125.851 474.022 125.851 477.976 125.412V82.3503C474.461 81.9109 471.385 81.4715 467.87 81.4715ZM275.41 135.079L237.182 68.2894V135.079H224V50.7131H242.455L280.683 116.624V50.7131H293.865V135.079H275.41ZM396.686 136.397C389.656 136.397 382.625 135.518 375.595 134.2H374.716V122.336L376.034 122.776C382.186 124.533 388.777 125.412 394.929 125.412C399.762 125.412 411.187 124.533 411.187 117.503C411.187 111.351 403.277 110.033 397.126 108.715H396.686L393.611 107.836C384.383 105.639 374.277 101.684 374.277 89.3808C374.277 77.0775 383.944 70.4864 400.641 70.4864C406.793 70.4864 412.944 70.9258 419.096 72.244L421.293 72.6834V84.1079H419.975C414.263 82.7897 408.111 82.3503 402.399 81.9109C395.808 81.9109 387.898 83.2291 387.898 88.9414C387.898 93.7749 394.489 95.0931 401.959 96.8507C412.505 99.0477 425.248 102.124 425.248 116.185C425.248 128.927 414.702 136.397 396.686 136.397ZM531.584 136.397C517.084 136.397 503.462 133.761 503.462 115.306C503.462 95.0931 524.553 95.0931 536.857 95.0931C538.175 95.0931 543.887 95.5325 545.645 95.5325C545.645 84.1079 545.645 81.4715 528.947 81.4715C522.356 81.9109 515.326 82.3503 508.735 84.1079H507.417V73.1228H508.295C515.326 71.8046 522.796 70.9258 530.266 70.9258C546.084 70.9258 559.706 72.6834 559.706 92.4567V135.518H558.827C549.6 135.518 540.372 135.958 531.584 136.397ZM536.417 104.76C524.553 104.76 517.083 106.518 517.083 115.306C517.083 125.412 526.75 126.291 535.539 126.291C539.054 126.291 544.766 125.851 546.524 125.851V105.199L536.417 104.76ZM333.851 136.397C319.351 136.397 305.729 133.761 305.729 115.306C305.729 95.0931 326.821 95.0931 339.124 95.0931C340.442 95.0931 346.155 95.5325 347.912 95.5325C347.912 84.1079 347.912 81.4715 331.215 81.4715C324.624 81.9109 317.593 82.3503 311.002 84.1079H309.684V73.1228H310.563C317.593 71.8046 325.063 70.9258 332.533 70.9258C348.352 70.9258 361.973 72.6834 361.973 92.4567V135.518H361.095C352.306 135.518 343.079 135.958 333.851 136.397ZM338.685 104.76C326.821 104.76 319.351 106.518 319.351 115.306C319.351 125.412 329.018 126.291 337.806 126.291C341.321 126.291 347.034 125.851 348.791 125.851V105.199L338.685 104.76ZM615.95 163.64V135.958C612.435 136.397 608.919 136.837 605.404 136.837C599.692 136.837 593.98 135.518 588.707 133.761C578.161 129.367 571.57 117.942 571.57 103.442C571.57 95.9719 573.327 82.7897 585.191 75.7592C592.222 71.8046 600.571 70.047 608.919 70.9258C612.874 70.9258 617.707 71.3652 622.541 71.3652H630.011V157.049L615.95 163.64ZM607.601 81.4715C593.101 81.4715 586.07 88.9414 586.07 103.002C586.07 121.457 597.055 125.412 605.843 125.412C609.359 125.412 612.874 124.973 615.95 124.533V81.4715H607.601Z" fill="white"/>
<path d="M905.956 136.396C891.455 136.396 877.834 133.76 877.834 115.305C877.834 95.0922 898.925 95.0922 911.229 95.0922C912.547 95.0922 918.259 95.5316 920.017 95.5316C920.017 84.1071 920.017 81.4707 903.319 81.4707C896.728 81.9101 889.698 82.3495 883.107 84.1071H881.789V73.122H882.667C889.698 71.8037 897.168 70.9249 904.638 70.9249C920.456 70.9249 934.078 72.6826 934.078 92.4558V135.518H933.199C923.971 135.957 914.744 136.396 905.956 136.396ZM910.789 105.199C898.925 105.199 891.455 106.956 891.455 115.744C891.455 125.851 901.122 126.729 909.91 126.729C913.426 126.729 919.138 126.29 920.896 126.29V105.638L910.789 105.199ZM834.333 136.396C855.864 136.396 869.485 123.654 869.485 103.88C869.485 82.7889 857.182 70.0461 836.969 70.0461H835.211C831.696 70.0461 828.181 70.0461 824.666 70.4855V45H810.165V134.199C818.075 135.518 825.984 136.396 834.333 136.396ZM833.893 81.0313C847.515 81.0313 854.106 88.5012 854.106 103.441C854.106 117.063 846.197 125.411 833.014 125.411C830.378 125.411 827.742 125.411 823.787 124.972V81.9101C827.302 81.0313 830.817 81.0313 833.893 81.0313ZM656.813 50.2729C659.889 49.8335 663.404 49.8335 667.359 49.3941C671.313 48.9546 675.268 48.9546 679.222 48.9546C695.48 48.9546 707.344 52.9093 715.254 60.3792C723.163 67.8491 727.118 78.8342 727.118 92.8952C727.118 107.396 723.163 118.381 714.814 125.851C706.466 133.321 694.602 136.836 678.344 136.396C674.389 136.396 670.434 136.396 666.48 135.957C662.525 135.518 659.01 135.518 656.373 135.078V50.2729H656.813ZM669.995 124.972C671.313 124.972 672.631 125.411 674.389 125.411H680.101C684.935 125.411 689.329 124.972 693.723 123.654C697.678 122.775 701.193 121.017 704.269 118.381C707.345 115.744 709.981 112.229 711.299 108.274C713.057 103.002 713.936 97.7287 713.936 92.0164C713.936 86.7435 713.057 81.9101 711.299 77.0766C709.981 73.122 707.345 69.6067 704.269 66.9703C701.193 64.3338 697.678 62.1368 693.723 61.258C689.329 59.9398 684.935 59.5004 680.101 59.5004H674.828C673.071 59.5004 671.313 59.5004 669.995 59.9398V124.972ZM740.739 71.3643H753.482V107.396C753.482 110.471 753.921 113.547 754.8 116.623C755.24 118.82 756.558 121.017 758.315 122.335C760.073 123.654 761.831 124.972 764.028 125.411C766.664 125.851 769.301 126.29 771.937 126.29C775.892 126.29 779.407 125.851 782.922 124.972V71.3643H795.665V132.881C792.589 133.76 789.074 134.639 785.119 135.078C780.725 135.957 776.771 135.957 772.377 135.957C768.422 135.957 764.467 135.518 760.513 135.078C756.997 134.639 753.482 132.881 750.846 131.123C747.77 128.926 745.573 125.851 744.255 122.335C742.532 117.694 741.639 112.786 741.618 107.835L740.739 71.3643ZM964.397 136.396H950.336V73.5614L964.397 67.4097V136.396ZM950.336 45H964.397V56.8639L950.336 62.5762V45Z" fill="white"/>
</svg>
