<svg width="95" height="30" viewBox="0 0 95 30" fill="none" xmlns="http://www.w3.org/2000/svg">
<g clip-path="url(#clip0_11160_13732)">
<path d="M27.4441 18.9802C27.4441 18.9802 26.8245 25.1091 26.6953 26.1775H28.7682C28.7682 26.1775 29.0125 24.5174 29.5808 19.8041C29.6834 18.9487 29.8251 17.2363 29.8251 17.2363L27.4441 18.9802Z" fill="url(#paint0_linear_11160_13732)"/>
<path d="M21.8096 3.21877C24.4649 2.56939 26.3821 3.78436 27.253 9.04227C27.5047 10.7123 27.6266 12.3989 27.6177 14.0872C28.4237 13.4646 29.1908 12.8583 29.919 12.2682C29.8585 10.2466 29.6096 8.23467 29.1755 6.25795C28.2479 2.19931 25.6156 0.474609 22.9496 0.474609C22.5674 0.477759 22.186 0.51221 21.8096 0.57761V3.21877Z" fill="url(#paint1_linear_11160_13732)"/>
<path d="M22.9495 0.474609C19.8551 0.474609 14.2117 3.09308 8.50268 9.22727C2.05902 16.1418 0.508301 21.576 0.508301 24.4232C0.508301 27.2703 2.42546 29.524 5.91989 29.524C9.41428 29.524 15.0047 27.3506 23.3142 21.8344C31.6236 16.3181 39.6711 9.41237 39.6711 9.41237L37.9363 5.47764C36.1483 6.88812 28.2956 14.3508 17.807 21.0139C7.73614 27.4083 4.54973 26.3504 4.10364 25.5317C3.73366 24.8334 2.98131 22.3895 7.06169 15.8974C11.1421 9.40537 17.5061 4.81429 20.7226 3.56616C21.4292 3.27086 22.183 3.10011 22.9495 3.06166V0.474609Z" fill="white"/>
<path d="M92.3991 14.0489V26.1759H94.4897V14.0489H92.3991Z" fill="white"/>
<path d="M54.0683 19.3834V17.739H47.3397V19.558H51.5564L47.2176 24.4598L47.9734 26.1758H54.2082V24.3568H49.6233L54.0683 19.3834Z" fill="white"/>
<path d="M39.6463 14.0489L34.3232 26.1759H36.6776L37.9061 23.3113H43.4593L44.6879 26.1706H47.0352L41.7245 14.0489H39.6463ZM38.7151 21.4452L40.6819 16.8524L42.6557 21.4417H38.7151V21.4452Z" fill="white"/>
<path d="M83.617 17.5506C80.9616 17.5506 79.225 19.4376 79.225 21.9496C79.225 24.5489 80.9457 26.3678 83.5816 26.3678C85.1978 26.3678 86.4971 25.7254 87.322 24.6222L85.7766 23.4858C85.3199 24.1439 84.5481 24.5332 83.5993 24.5332C82.3158 24.5332 81.475 23.7354 81.3334 22.5414H87.692V21.6878C87.692 19.0728 86.1466 17.5506 83.617 17.5506ZM81.367 21.0663C81.5954 19.888 82.3867 19.1775 83.5285 19.1775C84.6171 19.1775 85.4261 19.8025 85.6014 21.0663H81.367Z" fill="white"/>
<path d="M88.887 26.1759H90.9776V14.0489H88.887V26.1759Z" fill="white"/>
<path d="M74.5693 19.401C75.0329 19.3959 75.487 19.531 75.8703 19.7882C76.2536 20.0454 76.5477 20.4123 76.7131 20.8394L78.5223 19.8862C77.7841 18.3972 76.6246 17.5506 74.5162 17.5506C71.8467 17.5506 70.0712 19.3695 70.0712 21.9496C70.0712 24.5297 71.8184 26.3661 74.4631 26.3661C76.3608 26.3661 77.731 25.4933 78.5223 24.0793L76.7131 23.1262C76.2741 23.9746 75.5713 24.5122 74.5693 24.5122C73.1992 24.5122 72.1972 23.3863 72.1972 21.9479C72.1972 20.5094 73.1992 19.401 74.5693 19.401Z" fill="white"/>
<path d="M66.6458 18.9679H66.5077V17.746H64.4153V26.1827H66.5077V22.2637C66.5077 20.738 67.3326 19.5615 68.6161 19.5615C68.9321 19.5556 69.2469 19.6022 69.5472 19.6994V17.6866C69.3106 17.6357 69.0688 17.6122 68.8267 17.6168C67.823 17.6168 66.9627 18.1719 66.6458 18.9679Z" fill="white"/>
<path d="M59.1984 17.5506C56.5431 17.5506 54.8065 19.4376 54.8065 21.9496C54.8065 24.5489 56.5272 26.3678 59.163 26.3678C60.7793 26.3678 62.0786 25.7254 62.9053 24.6222L61.3581 23.4858C60.9014 24.1439 60.1296 24.5332 59.1807 24.5332C57.8973 24.5332 57.0565 23.7354 56.9149 22.5414H63.2735V21.6878C63.2735 19.0728 61.7281 17.5506 59.1984 17.5506ZM56.9485 21.0646C57.1768 19.8862 57.9681 19.1758 59.1099 19.1758C60.1986 19.1758 61.0076 19.8007 61.1829 21.0646H56.9485Z" fill="white"/>
</g>
<defs>
<linearGradient id="paint0_linear_11160_13732" x1="26.6493" y1="19.3502" x2="30.4467" y2="25.0623" gradientUnits="userSpaceOnUse">
<stop offset="0.07" stop-color="white" stop-opacity="0.5"/>
<stop offset="0.7" stop-color="white"/>
</linearGradient>
<linearGradient id="paint1_linear_11160_13732" x1="30.4306" y1="11.8615" x2="21.5719" y2="0.767169" gradientUnits="userSpaceOnUse">
<stop offset="0.07" stop-color="white" stop-opacity="0.5"/>
<stop offset="0.6" stop-color="white"/>
</linearGradient>
<clipPath id="clip0_11160_13732">
<rect width="95" height="30" fill="white"/>
</clipPath>
</defs>
</svg>
