<svg width="244" height="42" viewBox="0 0 244 42" fill="none" xmlns="http://www.w3.org/2000/svg">
<path d="M50.3965 29.1569C50.3956 26.6288 51.146 24.1572 52.5526 22.0547C53.9593 19.9523 55.9591 18.3134 58.2991 17.3453C60.639 16.3772 63.2141 16.1235 65.6986 16.6162C68.1831 17.1088 70.4654 18.3258 72.2569 20.1131C74.0483 21.9005 75.2685 24.1779 75.763 26.6574C76.2575 29.1369 76.0041 31.707 75.0349 34.0428C74.0658 36.3785 72.4243 38.375 70.3182 39.7796C68.2121 41.1843 65.736 41.934 63.2029 41.934C59.8079 41.9317 56.5526 40.5849 54.1515 38.1894C51.7505 35.7938 50.4 32.5453 50.3965 29.1569Z" fill="white"/>
<path fill-rule="evenodd" clip-rule="evenodd" d="M37.2077 21.3774C42.0939 19.106 44.534 16.0134 44.5281 12.0998C44.5281 8.79357 43.5691 6.21182 41.6334 4.38527C40.0628 2.89681 37.7444 1.87377 34.6957 1.31175C31.8961 0.891721 29.0663 0.706657 26.2358 0.758516H0.763672V41.8954H28.0395C30.8983 41.9586 33.7538 41.6635 36.539 41.0172C39.2138 40.3059 41.214 39.1716 42.5397 37.6144C44.053 35.8361 44.8053 33.4344 44.8053 30.4267C44.8316 29.3227 44.6291 28.2251 44.2104 27.2029C43.7918 26.1806 43.1661 25.2557 42.3725 24.4861C41.1803 23.2786 39.4645 22.2512 37.2077 21.3774ZM11.1901 8.12617H26.3721C28.7184 8.12617 30.4591 8.52866 31.5941 9.33363C32.7116 10.1327 33.2747 11.3402 33.2747 12.9692C33.2747 14.743 32.6456 15.9929 31.3874 16.7189C30.3051 17.3467 28.6466 17.6673 26.3721 17.6673H11.1901V8.12617ZM31.295 33.7505C30.1951 34.3389 28.5982 34.6287 26.5173 34.6287H11.1901V24.9208H26.5173C31.1161 24.9208 33.4155 26.5556 33.4155 29.8252C33.4155 31.6605 32.7116 32.9734 31.295 33.7505Z" fill="white"/>
<path fill-rule="evenodd" clip-rule="evenodd" d="M72.4551 8.01044H88.3366V41.8938H99.1722V8.01044H115.181V0.871094H72.4551V8.01044Z" fill="white"/>
<path fill-rule="evenodd" clip-rule="evenodd" d="M120.139 6.72922C116.837 10.1891 115.186 15.3117 115.186 22.0968C115.186 28.4517 117.073 33.3064 120.847 36.6609C124.78 40.1384 130.63 41.8786 138.396 41.8815H155.958V34.7553H138.801C134.736 34.7553 131.781 34.0016 129.936 32.4941C128.018 30.9398 127.073 28.3317 127.073 24.6961H155.967V17.5524H127.064C127.064 14.3867 128.076 11.9762 130.117 10.3472C132.158 8.71823 135.035 7.90155 138.792 7.90155H155.95V0.757812H138.66C130.114 0.757812 123.94 2.74828 120.139 6.72922Z" fill="white"/>
<path fill-rule="evenodd" clip-rule="evenodd" d="M163.227 6.72874C159.93 10.1886 158.28 15.3112 158.277 22.0963C158.277 28.4512 160.165 33.3059 163.939 36.6604C167.863 40.1379 173.715 41.8781 181.493 41.881H199.05V34.7548H181.915C179.135 34.7548 177.038 34.5382 175.624 34.105C174.723 33.8631 173.879 33.4456 173.141 32.8767C172.402 32.3077 171.784 31.5985 171.321 30.79C170.263 28.94 169.735 26.2485 169.738 22.7154C169.738 17.1538 170.858 13.1802 173.099 10.7946C175.002 8.79238 177.935 7.78983 181.897 7.78691H199.033V0.761722H181.765C173.21 0.758795 167.031 2.7478 163.227 6.72874Z" fill="white"/>
<path fill-rule="evenodd" clip-rule="evenodd" d="M232.881 0.757812V17.4382H213.692V0.757812H203.27V41.8947H213.692V24.6961H232.881V41.8947H243.237V0.757812H232.881Z" fill="white"/>
</svg>
