<svg width="529" height="102" viewBox="0 0 529 102" fill="none" xmlns="http://www.w3.org/2000/svg">
<path fill-rule="evenodd" clip-rule="evenodd" d="M214.196 100.712C215.681 101.022 216.066 101.087 217.579 101.279C218.539 101.401 220.821 101.383 223.89 100.679C227.365 99.8813 229.888 98.6331 231.612 96.8578C233.801 94.6034 234.314 93.1663 234.314 89.2851C234.314 86.1594 234.22 85.7099 233.255 84.2524C231.72 81.9323 229.448 80.6825 222.809 78.5045C214.05 75.6309 212.877 74.7622 213.472 71.5907C213.904 69.2861 216.104 67.9388 219.433 67.9388C222.102 67.9388 223.713 68.8041 224.651 70.7415C225.076 71.6201 225.424 72.5406 225.424 72.787C225.424 73.1038 226.599 73.235 229.443 73.235H233.462L233.286 71.249C232.784 65.5766 229.025 62.5964 221.636 62.0123C216.369 61.596 210.368 63.3044 207.962 65.9052C204.449 69.7021 204.06 75.6605 207.093 79.2039C208.816 81.2169 211.778 82.6732 218.39 84.7574C225.304 86.9371 226.391 87.7555 226.076 90.5473C225.816 92.8527 224.116 94.4921 221.278 95.1729C217.112 96.1724 213.487 94.3438 212.593 90.7911L212.173 89.1237H208.154H204.135L204.383 91.2323C204.696 93.8985 205.665 95.8022 207.594 97.5453C209.64 99.3934 211 100.046 214.196 100.712ZM440.694 95.2593C441.491 98.1296 443.536 99.7283 447.865 100.866C451.159 101.729 452.548 101.737 455.892 100.901C462.228 99.3178 464.702 96.8107 464.428 92.2487C464.333 90.6671 464.037 89.5439 463.53 88.844C462.485 87.4003 459.312 85.8955 455.053 84.8246C453.076 84.3275 451.017 83.7437 450.478 83.5275C446.844 82.0714 447.899 78.1529 451.925 78.1529C454.217 78.1529 455.296 78.8916 455.813 80.8149L456.217 82.3143H459.986H463.754V81.2988C463.754 79.4979 462.369 77.2815 460.452 76.0145C457.881 74.3153 456.092 73.8439 452.216 73.8431C445.073 73.8418 441.054 76.7188 441.057 81.8292C441.061 85.973 443.531 87.8219 451.581 89.7054C455.013 90.5083 456.566 91.6826 456.566 93.4741C456.566 94.8858 454.875 96.6442 453.416 96.7485C450.4 96.9644 449.156 96.2851 448.335 93.9729L447.688 92.15H443.994C439.841 92.15 439.833 92.1578 440.694 95.2593ZM410.719 93.8316C412.606 97.9753 415.022 99.8361 419.588 100.664C423.082 101.297 423.35 101.304 426.3 100.825C431.714 99.947 434.885 97.4258 435.903 93.1907L436.152 92.1503H432.362C428.764 92.1503 428.572 92.1906 428.572 92.9448C428.572 94.1401 426.292 96.2085 424.631 96.5199C422.634 96.8944 420.498 96.1603 419.326 94.697C418.787 94.0246 418.156 93.2443 417.923 92.9631C417.69 92.6818 417.416 91.706 417.313 90.7944L417.126 89.1371L426.727 89.0359L436.327 88.9345L436.24 86.0356C436.078 80.6928 433.871 76.8689 429.792 74.8659C427.856 73.9156 427.224 73.8025 423.843 73.8026C418.568 73.8028 416.211 74.5754 413.638 77.1493C410.779 80.0074 409.926 82.4383 409.892 87.7996C409.871 91.3448 409.993 92.238 410.719 93.8316ZM426.137 78.7062C427.582 79.3096 428.927 81.6299 428.942 83.5438L428.951 84.5842H423.039H417.129L417.373 83.3547C417.508 82.6785 417.785 82.0684 417.988 81.9992C418.192 81.9298 418.358 81.6638 418.358 81.4079C418.358 80.8623 420.078 79.1871 421.265 78.5777C422.408 77.99 424.559 78.0467 426.137 78.7062ZM472.491 96.4856C472.976 98.4129 474.381 99.8845 476.238 100.409C477.761 100.839 482.769 100.963 484.513 100.615C485.692 100.379 485.695 100.37 485.695 97.9244V95.4706L484.348 95.7234C482.501 96.0698 480.44 95.3332 479.997 94.1691C479.802 93.6558 479.642 90.0975 479.642 86.2618V79.2878H482.669H485.695V76.8289V74.3699H482.669H479.642V70.5869C479.642 66.8531 479.432 66.2828 478.397 67.2159C478.146 67.4426 476.663 68.1747 475.103 68.8429L472.266 70.0579L472.152 72.2139L472.039 74.3699H469.599H467.159V76.8289V79.2878H469.618H472.077V87.0647C472.077 91.4426 472.257 95.5601 472.491 96.4856ZM242.116 87.6062C241.89 87.7663 240.85 90.2294 236.88 100.013C236.725 100.395 237.591 100.475 240.935 100.391L245.187 100.284L246.79 96.1224L248.393 91.961L256.339 91.859C262.413 91.7811 264.371 91.8703 264.653 92.2373C264.855 92.5014 265.666 94.4625 266.455 96.5951L267.889 100.473H272.386H276.883L276.281 99.0541C275.949 98.2739 274.858 95.5926 273.856 93.0958C272.854 90.5991 270.476 84.811 268.572 80.2336C266.668 75.6561 264.675 70.8044 264.143 69.452C263.611 68.0996 262.802 66.0568 262.346 64.9124L261.516 62.8318L256.947 62.7259L252.378 62.6201L251.414 64.9958C250.884 66.3024 249.941 68.6482 249.319 70.2087C244.92 81.235 242.351 87.4403 242.116 87.6062ZM256.657 69.5378C256.839 69.7205 262.498 85.9684 262.498 86.31C262.498 86.4011 259.756 86.4756 256.404 86.4756C250.753 86.4756 250.331 86.4276 250.576 85.8136C250.722 85.4495 251.914 82.0873 253.226 78.3421C256.164 69.9527 256.418 69.2993 256.657 69.5378ZM281.034 62.5885V81.5622V100.536L291.343 100.382C303.004 100.208 304.738 99.8708 307.9 97.1645C310.066 95.31 310.901 93.3585 310.912 90.1268C310.925 85.957 309.173 83.4357 305.116 81.7866L302.98 80.9187L305.139 79.8149C306.561 79.0876 307.689 78.1531 308.447 77.0755C309.468 75.6224 309.596 75.1379 309.596 72.7299C309.596 68.2033 308.079 65.8409 303.921 63.8941L301.652 62.8319L291.343 62.7102L281.034 62.5885ZM302.598 89.4001C302.598 91.9403 301.72 93.3267 299.568 94.1878C298.474 94.6255 296.814 94.7982 293.7 94.7982H289.357V89.502V84.2058H293.909C298.95 84.2058 300.45 84.6032 301.778 86.2916C302.391 87.072 302.598 87.8538 302.598 89.4001ZM298.128 69.087C302.4 70.2735 302.701 76.2855 298.574 78.0097C297.781 78.3408 295.872 78.5313 293.341 78.5313H289.357V73.6134V68.6955L293.046 68.6976C295.074 68.6988 297.362 68.8738 298.128 69.087ZM334.375 62.6426V81.5577V100.473H338.347H342.319V81.5577V62.6426H338.347H334.375ZM350.264 74.37V87.4214L350.263 100.473H354.004H357.745L357.931 92.4338C358.033 88.0125 358.306 83.7916 358.537 83.0541C359.858 78.8382 365.404 77.6726 367.458 81.1794C368.17 82.3952 368.243 83.2376 368.352 91.4881L368.472 100.473H372.446H376.421L376.299 90.164C376.184 80.4568 376.13 79.7671 375.362 78.3421C374.121 76.0357 371.02 74.3196 367.662 74.0793C364.239 73.8344 362.032 74.4726 359.943 76.3117C359.029 77.1164 358.179 77.7746 358.055 77.7746C357.931 77.7746 357.83 77.0086 357.83 76.0724V74.37H354.047H350.264ZM379.393 74.6528C379.393 74.8083 381.73 80.6867 384.587 87.7157L389.781 100.496L393.927 100.39L398.072 100.284L402.66 88.9347C405.183 82.6927 407.533 76.8622 407.882 75.9779L408.516 74.3701H404.799H401.082L397.711 84.206C395.858 89.6157 394.237 94.0417 394.11 94.0417C393.983 94.0417 393.637 93.3183 393.342 92.434C393.047 91.5498 391.561 87.1236 390.04 82.5982L387.274 74.3701H383.333C381.166 74.3701 379.393 74.4975 379.393 74.6528ZM423.115 49.2168C424.611 51.1783 428.134 52.7641 431.798 53.1254C434.783 53.42 435.322 53.411 438.946 53.0099C441.29 52.7504 444.405 51.3412 445.766 49.9237C446.341 49.3248 447.177 48.0688 447.623 47.1325C448.42 45.4601 448.435 45.0871 448.435 25.9476V6.46515H445.219H442.004L441.808 25.0019C441.594 45.2574 441.563 45.5314 439.354 46.9788C436.92 48.5741 431.529 48.309 429.642 46.5014C428.118 45.0413 427.823 43.5262 427.819 37.1879L427.816 31.5937L424.316 31.7026L420.817 31.8114L420.86 38.2426C420.906 45.2176 421.216 46.7278 423.115 49.2168ZM458.079 48.2675V50.9706L458.078 53.6735L463.658 53.4675C466.727 53.3541 470.071 53.0476 471.089 52.7864C473.454 52.1798 475.988 49.8292 476.573 47.7C476.835 46.7471 476.991 41.6905 476.991 34.0427L476.995 21.8985L473.873 21.6556C467.547 21.1631 461.777 21.6671 460.299 22.8415C455.548 26.6157 454.514 28.7147 454.758 34.0811C454.928 37.8147 455.639 39.6981 457.572 41.5324C459.369 43.2385 461.305 43.8285 465.748 44.0243C467.989 44.1231 469.91 44.3447 470.016 44.5166C470.414 45.1605 469.072 47.5211 468.098 47.8915C467.554 48.0982 465.078 48.2675 462.594 48.2675H458.079ZM470.185 27.461V33.1355V38.8083L467.63 38.8044C464.655 38.7979 463.431 38.2888 462.629 36.7239C462.311 36.1027 461.922 35.5375 461.766 35.4684C461.396 35.303 461.398 30.8657 461.77 30.8657C461.927 30.8657 462.265 30.3932 462.521 29.8158C463.244 28.1821 464.827 27.461 467.69 27.461H470.185ZM205.563 47.3215L205.453 50.2533L205.342 53.1844L208.29 53.1769C212.76 53.1643 215.094 51.8375 216.602 48.4514C217.192 47.1274 217.29 45.4083 217.408 34.3648L217.542 21.7863H213.917H210.292V33.4626C210.292 44.6207 210.258 45.1822 209.525 46.1145C208.957 46.8365 208.342 47.12 207.16 47.2058L205.563 47.3215ZM241.539 44.3293C242.059 44.4688 242.631 45.2624 243.198 46.6304L244.064 48.7182L250.538 48.5863C257.82 48.4378 259.347 48.005 261.697 45.4221L262.895 44.1059H270.021C277.015 44.1059 277.172 44.0882 278.553 43.1513L279.959 42.1969L281.094 43.1513C282.21 44.0907 282.328 44.1059 288.763 44.1059C294.953 44.1059 295.367 44.0599 296.584 43.2376L297.869 42.3694L299.152 43.2376L300.434 44.1059H322.512H344.59V32.946V21.7861H340.996H337.402V30.2978V38.8096H334.375H331.349V32.7426V26.6756L327.85 26.7844L324.35 26.8933L324.246 32.8515L324.142 38.8098H321.324H318.506L318.401 32.8515L318.297 26.8933H314.892H311.488L311.383 32.8515L311.279 38.8098H305.803C302.362 38.8098 300.607 38.9512 299.716 38.1419C298.666 37.1887 298.814 34.9167 298.814 29.5414V21.7862H295.41H292.005V29.7035C292.005 36.3966 291.913 37.7127 291.41 38.2153C290.594 39.0316 282.681 39.0784 281.579 38.2735C280.9 37.7769 280.837 37.1459 280.729 29.7618L280.614 21.7863H277.23H273.847V29.7036C273.847 36.3968 273.755 37.7128 273.252 38.2154C272.784 38.6833 271.777 38.8099 268.523 38.8099H264.389V36.7434C264.389 32.4195 262.038 28.7632 258.147 27.0375C256.659 26.3778 255.529 26.1945 252.851 26.1869C248.226 26.1713 245.931 26.975 243.382 29.5033C241.18 31.6881 240.491 33.3335 240.417 36.5823L240.367 38.8037L236.562 38.8067C233.87 38.8089 232.542 38.6528 232.022 38.2732C231.321 37.761 231.279 37.0247 231.099 22.1008L230.91 6.46515H227.505H224.1V23.1103C224.1 39.1298 224.129 39.8053 224.865 41.0796C225.319 41.8637 226.316 42.7508 227.31 43.2548C228.836 44.028 229.527 44.1074 234.867 44.1112C238.1 44.1138 241.103 44.2121 241.539 44.3293ZM255.381 31.9746C258.107 34.1192 257.595 41.2089 254.602 42.7567C253.964 43.0866 252.522 43.3491 251.349 43.3491C248.917 43.3491 248.724 43.1141 248.184 39.4803C247.599 35.555 248.584 32.3814 250.626 31.605C252.188 31.011 254.371 31.1806 255.381 31.9746ZM349.885 38.8097V41.4578L349.884 44.1057H363.608H377.332L378.623 43.2207L379.915 42.3357L381.219 43.2207C382.486 44.0792 382.756 44.1057 390.604 44.1057H398.685V25.1906V6.27564H395.28H391.875V22.5425V38.8095H387.231C383.639 38.8095 382.395 38.6759 381.745 38.2205L380.904 37.6317V21.9537V6.27564H377.311H373.717L373.713 21.5022C373.709 33 373.591 36.9604 373.23 37.6746C372.78 38.567 372.555 38.6267 369.263 38.7291L365.774 38.8379V27.0822V15.3265L362.275 15.4354L358.776 15.5442L358.675 27.1769L358.575 38.8097H354.23H349.885ZM482.858 38.9987L482.746 41.5523L482.635 44.1057H498.166H513.698L513.599 25.2853L513.501 6.46478H510.096H506.692L506.593 22.6371L506.494 38.8095H502.532H498.569L498.469 27.1767L498.369 15.544H494.964H491.559L491.459 27.1644L491.359 38.7848L487.109 38.8918L482.858 38.9987ZM520.878 6.27576V25.1908V44.1059H524.471H528.065V25.1908V6.27576H524.471H520.878ZM269.681 12.9068C269.229 14.0961 269.85 16.1332 270.915 16.9529C272.143 17.898 273.985 17.7953 275.244 16.7117C276.126 15.9536 276.306 15.4989 276.306 14.0309C276.306 12.563 276.126 12.1082 275.244 11.3501C273.319 9.69421 270.615 10.4509 269.681 12.9068ZM278.017 12.6843C277.43 14.1015 277.759 15.5186 278.952 16.7114C280.622 18.3817 283.339 17.7827 284.277 15.537C285.332 13.012 283.807 10.437 281.257 10.437C279.754 10.437 278.623 11.2216 278.017 12.6843ZM287.844 14.0306C287.844 15.0539 288.131 15.7 288.95 16.5187C290.186 17.7546 291.463 17.9241 293.113 17.071C294.362 16.4253 294.653 15.8187 294.653 13.8658C294.653 10.6692 291.221 9.27112 288.95 11.5425C288.131 12.3612 287.844 13.0072 287.844 14.0306ZM296.167 14.0306C296.167 15.0539 296.454 15.7 297.272 16.5187C298.682 17.9282 300.236 17.9714 301.812 16.6448C302.781 15.8294 302.976 15.3919 302.976 14.0305C302.976 12.669 302.781 12.2314 301.812 11.416C300.236 10.0896 298.682 10.1328 297.272 11.5425C296.454 12.3612 296.167 13.0072 296.167 14.0306ZM490.826 8.16699C489.948 8.16699 489.857 8.30862 489.857 9.68018V11.1934H494.964H500.071V9.68018V8.16699H497.842C495.427 8.16699 495.153 7.93358 495.153 5.87952C495.153 4.58741 496.026 4.00562 497.965 4.00562C499.288 4.00562 499.314 3.97492 499.314 2.49243V0.979248L497.328 0.979858C493.444 0.98103 491.099 3.25231 491.567 6.55921C491.784 8.09139 491.749 8.16699 490.826 8.16699ZM273.847 6.51544C273.847 7.80105 274.067 8.42189 274.775 9.12995C276.178 10.5322 278.388 10.4261 279.677 8.89453C281.298 6.96837 280.895 4.53968 278.772 3.44214C277.21 2.634 276.345 2.72783 275.011 3.85016C274.032 4.67398 273.847 5.09725 273.847 6.51544ZM46.75 97.4792L0 50.7292L46.75 3.97925L46.75 97.4792ZM140.25 97.4792L187 50.7292L140.25 3.97925H46.75L93.5 50.7292L46.75 97.4792H140.25ZM140.25 3.97925L93.5 50.7292L140.25 97.4792V3.97925Z" fill="white"/>
</svg>
