<svg width="226" height="52" viewBox="0 0 226 52" fill="none" xmlns="http://www.w3.org/2000/svg"><path fill-rule="evenodd" clip-rule="evenodd" d="M143.053 4.86549e-05H151.997C152.194 -0.00215614 152.383 0.0706505 152.523 0.20243C152.617 0.290282 152.683 0.399522 152.718 0.518359L152.745 0.702342V35.8371C152.745 44.7491 145.054 52 135.6 52C126.352 52 118.79 45.0609 118.466 36.4159L118.455 35.8371V34.427C118.457 34.2392 118.536 34.0598 118.676 33.9281C118.769 33.8403 118.883 33.7785 119.008 33.7475L119.2 33.7247H128.147C128.343 33.7232 128.531 33.7964 128.671 33.9281C128.764 34.0159 128.83 34.1249 128.865 34.2435L128.892 34.427V35.8371C128.892 39.3884 131.895 42.2673 135.6 42.2673C139.157 42.2673 142.067 39.6141 142.294 36.2599L142.308 35.8371V0.702342C142.31 0.514597 142.389 0.335134 142.529 0.203436C142.622 0.115638 142.737 0.0538632 142.861 0.0228655L143.053 4.86549e-05ZM24.5977 4.86549e-05H33.5423C33.7387 -0.00215614 33.9279 0.0706505 34.0682 0.20243C34.1616 0.290282 34.2282 0.399522 34.2627 0.518359L34.2897 0.702342V35.8371C34.2897 44.7491 26.5985 52 17.1448 52C7.89671 52 0.335233 45.0609 0.0108434 36.4159L0 35.8371V34.427C0.00155449 34.2392 0.0808574 34.0598 0.220462 33.9281C0.313531 33.8403 0.428318 33.7785 0.552537 33.7475L0.744404 33.7247H9.69196C9.88783 33.7232 10.0763 33.7964 10.2159 33.9281C10.309 34.0159 10.3752 34.1249 10.4095 34.2435L10.4364 34.427V35.8371C10.4364 39.3884 13.4398 42.2673 17.1448 42.2673C20.7016 42.2673 23.6119 39.6141 23.839 36.2599L23.8533 35.8371V0.702342C23.8548 0.514597 23.9341 0.335134 24.0737 0.203436C24.1668 0.115638 24.2816 0.0538632 24.4058 0.0228655L24.5977 4.86549e-05ZM192.461 4.86549e-05H202.624C202.999 -0.00153344 203.346 0.173458 203.556 0.458423L203.664 0.642069L225.942 49.537C226.04 49.7574 226.013 50.0099 225.871 50.2074C225.764 50.3555 225.603 50.4575 225.423 50.4967L225.237 50.5143H214.834C214.594 50.5143 214.372 50.4069 214.231 50.2306L214.141 50.086L191.769 0.97714C191.671 0.758603 191.697 0.508422 191.837 0.311565C191.941 0.163922 192.099 0.0611548 192.278 0.020019L192.461 4.86549e-05ZM74.0058 4.86549e-05H84.1725C84.5482 -0.00153344 84.8948 0.173462 85.1043 0.458428L85.2126 0.642069L107.487 49.5372C107.584 49.7557 107.558 50.0059 107.419 50.2028C107.314 50.3504 107.156 50.4532 106.978 50.4943L106.794 50.5143H96.3927C96.1526 50.5143 95.9307 50.407 95.7898 50.2308L95.7003 50.0863L73.3134 0.97714C73.2163 0.758602 73.2418 0.508423 73.3813 0.311565C73.486 0.163921 73.6442 0.0611551 73.8223 0.020019L74.0058 4.86549e-05ZM176.101 29.7143H186.286C186.534 29.7131 186.767 29.8271 186.906 30.0184C187.011 30.1618 187.052 30.3346 187.027 30.5023L186.98 30.667L178.641 48.6076C178.545 48.8129 178.351 48.9598 178.123 49.0098L177.947 49.0286H167.523C167.273 49.0306 167.039 48.9158 166.899 48.7229C166.795 48.5783 166.754 48.4043 166.78 48.2357L166.829 48.0703L175.058 30.3458C175.209 30.0248 175.518 29.799 175.879 29.7337L176.101 29.7143ZM57.6462 29.7143H67.8278C68.0767 29.7122 68.3104 29.8258 68.4504 30.0173C68.5554 30.1608 68.5973 30.3339 68.5722 30.5019L68.5247 30.667L60.1864 48.6075C60.0898 48.8124 59.8961 48.9592 59.6686 49.0095L59.4925 49.0286H49.0697C48.8192 49.0319 48.5837 48.9175 48.4437 48.7242C48.3387 48.5792 48.2981 48.4046 48.3256 48.2358L48.3759 48.0703L56.6039 30.3458C56.7545 30.0248 57.0642 29.799 57.4247 29.7337L57.6462 29.7143Z" fill="#f5f5f7"/></svg>