<svg width="420" height="105" viewBox="0 0 420 105" fill="none" xmlns="http://www.w3.org/2000/svg">
<path d="M356.241 87.2248V0H373.97V87.2248H356.241Z" fill="white"/>
<path d="M282.973 74.0166V30.6534L296.207 17.4451H345.399V56.5716H300.702V72.2721H342.902V87.2249H296.207L282.973 74.0166ZM300.702 46.8523L329.917 45.6062V31.401H300.702V46.8523Z" fill="white"/>
<path d="M207.674 104.67V17.4451H258.738L272.971 31.6502V73.0197L258.738 87.2249H225.403V104.67H207.674ZM255.242 32.3979H225.403V72.2721H255.242V32.3979Z" fill="white"/>
<path d="M133.183 74.0166V30.6534L146.417 17.4451H183.623L196.857 30.6534V74.0166L183.623 87.2249H146.417L133.183 74.0166ZM150.912 72.7705H179.128V31.8995H150.912V72.7705Z" fill="white"/>
<path d="M76.6596 87.2249V31.1518L90.3933 17.4451H126.351V33.3947H94.3885V87.2249H76.6596Z" fill="white"/>
<path d="M17.7289 54.0794H49.6909V14.4544H17.7289V54.0794ZM67.4198 13.4575V55.0762L53.9359 68.5338H17.7289V87.2248H0V0H53.9359L67.4198 13.4575Z" fill="white"/>
<path d="M404 70L417.856 87.25H390.144L404 70Z" fill="white"/>
</svg>
