<svg xmlns="http://www.w3.org/2000/svg" fill="none" viewBox="0 0 36 37" height="37" width="36">
<path stroke-linejoin="round" stroke-linecap="round" stroke-width="2.25" stroke="#FAFAF9" d="M30 18.5C30 25.1274 24.6274 30.5 18 30.5M30 18.5C30 11.8726 24.6274 6.5 18 6.5M30 18.5H6M18 30.5C11.3726 30.5 6 25.1274 6 18.5M18 30.5C14.9187 27.2646 13.2 22.9679 13.2 18.5C13.2 14.0321 14.9187 9.73538 18 6.5M18 30.5C21.0813 27.2646 22.8 22.9679 22.8 18.5C22.8 14.0321 21.0813 9.73538 18 6.5M6 18.5C6 11.8726 11.3726 6.5 18 6.5"></path>
</svg>
