<svg width="37" height="36" viewBox="0 0 37 36" fill="none" xmlns="http://www.w3.org/2000/svg">
<g id="Modality">
<path id="Union" fill-rule="evenodd" clip-rule="evenodd" d="M19.4585 4.875V6V7.875H28.8332H29.9582V10.125H28.8332H27.1763L27.6574 11.6644L31.4074 23.6644L31.8638 25.125H30.3336H22.8336H21.3034L21.7598 23.6644L25.5098 11.6644L25.9909 10.125H19.4585L19.4585 28.875H30.3335H31.4585V31.125H30.3335L19.4585 31.125H17.2085H6.3335H5.2085L5.2085 28.875H6.3335H17.2085L17.2085 10.125H10.676L11.1571 11.6644L14.9075 23.6644L15.364 25.125H13.8337H6.33299H4.80273L5.25921 23.6644L9.00958 11.6644L9.49069 10.125H7.83322H6.70822V7.875H7.83322H17.2085V6V4.875H19.4585ZM12.3035 22.875L10.0834 15.7714L7.86325 22.875H12.3035ZM26.5836 15.7717L28.8034 22.875H24.3638L26.5836 15.7717Z" fill="#FAFAF9"></path>
</g>
</svg>
